<svg xmlns="http://www.w3.org/2000/svg" xmlns:xlink="http://www.w3.org/1999/xlink" width="1080" zoomAndPan="magnify" viewBox="0 0 810 809.999993" height="1080" preserveAspectRatio="xMidYMid meet" version="1.0"><defs><g/><clipPath id="b8b6925641"><path d="M 202.5 202.5 L 607.5 202.5 L 607.5 405 L 202.5 405 Z M 202.5 202.5 " clip-rule="nonzero"/></clipPath><clipPath id="a1d58c64f9"><path d="M 202.5 405 C 202.5 293.164062 293.164062 202.5 405 202.5 C 516.835938 202.5 607.5 293.164062 607.5 405 L 575.101562 405 C 575.101562 311.054688 498.945312 234.898438 405 234.898438 C 311.054688 234.898438 234.898438 311.054688 234.898438 405 Z M 202.5 405 " clip-rule="nonzero"/></clipPath><clipPath id="2217724c5c"><path d="M 384.433594 342.511719 L 578 342.511719 L 578 405 L 384.433594 405 Z M 384.433594 342.511719 " clip-rule="nonzero"/></clipPath><clipPath id="46efe650f4"><path d="M 409.445312 404.507812 C 402.386719 406.09375 395.015625 403.796875 390.113281 398.476562 C 385.207031 393.15625 383.515625 385.625 385.667969 378.71875 C 387.824219 371.8125 393.496094 366.582031 400.554688 364.992188 L 572.558594 342.910156 C 574.742188 342.417969 576.910156 343.789062 577.398438 345.972656 C 577.890625 348.152344 576.519531 350.320312 574.335938 350.8125 Z M 409.445312 404.507812 " clip-rule="nonzero"/></clipPath></defs><g clip-path="url(#b8b6925641)"><g clip-path="url(#a1d58c64f9)"><path fill="#645ac3" d="M 202.5 202.5 L 607.5 202.5 L 607.5 405 L 202.5 405 Z M 202.5 202.5 " fill-opacity="1" fill-rule="nonzero"/></g></g><g clip-path="url(#2217724c5c)"><g clip-path="url(#46efe650f4)"><path fill="#ffffff" d="M 202.5 202.5 L 607.5 202.5 L 607.5 405 L 202.5 405 Z M 202.5 202.5 " fill-opacity="1" fill-rule="nonzero"/></g></g><g fill="#ffffff" fill-opacity="1"><g transform="translate(333.492174, 322.125004)"><g><path d="M 1.8125 0 L 1.8125 -5.609375 L 10.078125 -5.609375 L 10.078125 -26.9375 L 9.546875 -27.078125 C 8.367188 -26.515625 7.210938 -26.066406 6.078125 -25.734375 C 4.953125 -25.410156 3.660156 -25.15625 2.203125 -24.96875 L 2.203125 -30.75 C 6.003906 -31.550781 9.078125 -32.722656 11.421875 -34.265625 L 16.78125 -34.265625 L 16.78125 -5.609375 L 24.171875 -5.609375 L 24.171875 0 Z M 1.8125 0 "/></g></g><g transform="translate(358.781235, 322.125004)"><g/></g><g transform="translate(370.101547, 322.125004)"><g><path d="M 18.78125 0 L 12 0 L 12 -13.453125 L 0.171875 -34.265625 L 7.4375 -34.265625 L 15.265625 -20.796875 L 15.84375 -20.796875 L 23.515625 -34.265625 L 30.609375 -34.265625 L 18.78125 -13.453125 Z M 18.78125 0 "/></g></g><g transform="translate(400.874983, 322.125004)"><g><path d="M 25.546875 -11.46875 L 8.9375 -11.46875 C 9.125 -9.21875 9.765625 -7.578125 10.859375 -6.546875 C 11.953125 -5.523438 13.441406 -5.015625 15.328125 -5.015625 C 16.816406 -5.015625 18.019531 -5.289062 18.9375 -5.84375 C 19.863281 -6.40625 20.609375 -7.25 21.171875 -8.375 L 21.65625 -8.375 L 25.96875 -5.609375 C 25.125 -3.796875 23.847656 -2.320312 22.140625 -1.1875 C 20.441406 -0.0625 18.171875 0.5 15.328125 0.5 C 12.660156 0.5 10.351562 -0.0078125 8.40625 -1.03125 C 6.457031 -2.050781 4.957031 -3.5625 3.90625 -5.5625 C 2.851562 -7.570312 2.328125 -10.023438 2.328125 -12.921875 C 2.328125 -15.859375 2.878906 -18.332031 3.984375 -20.34375 C 5.097656 -22.363281 6.597656 -23.867188 8.484375 -24.859375 C 10.378906 -25.847656 12.503906 -26.34375 14.859375 -26.34375 C 18.515625 -26.34375 21.316406 -25.375 23.265625 -23.4375 C 25.210938 -21.5 26.1875 -18.65625 26.1875 -14.90625 C 26.1875 -13.550781 26.140625 -12.5 26.046875 -11.75 Z M 19.96875 -15.65625 C 19.90625 -17.625 19.445312 -19.054688 18.59375 -19.953125 C 17.75 -20.859375 16.503906 -21.3125 14.859375 -21.3125 C 11.578125 -21.3125 9.648438 -19.425781 9.078125 -15.65625 Z M 19.96875 -15.65625 "/></g></g><g transform="translate(428.976544, 322.125004)"><g><path d="M 10.078125 0.5 C 8.421875 0.5 6.984375 0.191406 5.765625 -0.421875 C 4.546875 -1.035156 3.609375 -1.929688 2.953125 -3.109375 C 2.296875 -4.285156 1.96875 -5.703125 1.96875 -7.359375 C 1.96875 -8.890625 2.296875 -10.175781 2.953125 -11.21875 C 3.609375 -12.257812 4.625 -13.109375 6 -13.765625 C 7.375 -14.429688 9.171875 -14.945312 11.390625 -15.3125 C 12.941406 -15.5625 14.117188 -15.832031 14.921875 -16.125 C 15.722656 -16.425781 16.265625 -16.765625 16.546875 -17.140625 C 16.828125 -17.515625 16.96875 -17.988281 16.96875 -18.5625 C 16.96875 -19.394531 16.675781 -20.03125 16.09375 -20.46875 C 15.519531 -20.90625 14.5625 -21.125 13.21875 -21.125 C 11.78125 -21.125 10.410156 -20.800781 9.109375 -20.15625 C 7.816406 -19.519531 6.695312 -18.675781 5.75 -17.625 L 5.28125 -17.625 L 2.5625 -21.734375 C 3.875 -23.179688 5.472656 -24.3125 7.359375 -25.125 C 9.253906 -25.9375 11.316406 -26.34375 13.546875 -26.34375 C 16.972656 -26.34375 19.453125 -25.613281 20.984375 -24.15625 C 22.515625 -22.707031 23.28125 -20.648438 23.28125 -17.984375 L 23.28125 -6.75 C 23.28125 -5.59375 23.785156 -5.015625 24.796875 -5.015625 C 25.191406 -5.015625 25.578125 -5.085938 25.953125 -5.234375 L 26.28125 -5.140625 L 26.75 -0.609375 C 26.382812 -0.378906 25.878906 -0.1875 25.234375 -0.03125 C 24.597656 0.113281 23.898438 0.1875 23.140625 0.1875 C 21.585938 0.1875 20.378906 -0.109375 19.515625 -0.703125 C 18.648438 -1.296875 18.03125 -2.226562 17.65625 -3.5 L 17.15625 -3.546875 C 15.894531 -0.847656 13.535156 0.5 10.078125 0.5 Z M 12.140625 -4.359375 C 13.640625 -4.359375 14.835938 -4.863281 15.734375 -5.875 C 16.640625 -6.882812 17.09375 -8.285156 17.09375 -10.078125 L 17.09375 -12.703125 L 16.640625 -12.796875 C 16.253906 -12.484375 15.742188 -12.222656 15.109375 -12.015625 C 14.472656 -11.804688 13.5625 -11.597656 12.375 -11.390625 C 10.96875 -11.160156 9.957031 -10.757812 9.34375 -10.1875 C 8.726562 -9.613281 8.421875 -8.804688 8.421875 -7.765625 C 8.421875 -6.648438 8.75 -5.800781 9.40625 -5.21875 C 10.0625 -4.644531 10.972656 -4.359375 12.140625 -4.359375 Z M 12.140625 -4.359375 "/></g></g><g transform="translate(456.234355, 322.125004)"><g><path d="M 3.734375 0 L 3.734375 -25.859375 L 10.03125 -25.859375 L 10.03125 -22.015625 L 10.53125 -21.921875 C 11.15625 -23.359375 11.972656 -24.410156 12.984375 -25.078125 C 14.003906 -25.753906 15.238281 -26.09375 16.6875 -26.09375 C 18.15625 -26.09375 19.273438 -25.84375 20.046875 -25.34375 L 18.9375 -19.734375 L 18.453125 -19.640625 C 18.023438 -19.816406 17.613281 -19.941406 17.21875 -20.015625 C 16.832031 -20.097656 16.359375 -20.140625 15.796875 -20.140625 C 13.984375 -20.140625 12.597656 -19.5 11.640625 -18.21875 C 10.691406 -16.945312 10.21875 -14.90625 10.21875 -12.09375 L 10.21875 0 Z M 3.734375 0 "/></g></g></g></svg>