<svg width="500" height="500" xmlns="http://www.w3.org/2000/svg" clip-rule="evenodd" fill-rule="evenodd" image-rendering="optimizeQuality" text-rendering="geometricPrecision" shape-rendering="geometricPrecision">

 <g>
  <title>Layer 1</title>
  <path id="svg_1" d="m256,0c141.384,0 256,114.616 256,256c0,141.384 -114.616,256 -256,256c-141.384,0 -256,-114.616 -256,-256c0,-141.384 114.616,-256 256,-256zm62.64,157.549l33.401,0l-72.974,83.407l85.85,113.495l-67.222,0l-52.645,-68.837l-60.244,68.837l-33.422,0l78.051,-89.212l-82.352,-107.69l68.924,0l47.59,62.916l55.043,-62.916zm-11.724,176.908l18.509,0l-119.475,-157.963l-19.861,0l120.827,157.963z" fill="#fff"/>
 </g>
</svg>